<svg width="100" height="100" viewBox="0 0 100 100" fill="none" xmlns="http://www.w3.org/2000/svg" class="sc-1d5wr1t-0 eFjQhk">
	<g clip-path="url(#a)">
		<path d="M71.599 7.07v12.48h-59.72V7.07c0-1.1.9-2 2-2h55.72a2 2 0 0 1 2 2Z" fill="url(#b)"></path>
		<path d="M71.599 51.41V7.07a2 2 0 0 0-2-2h-55.72c-1.1 0-2 .9-2 2v77.61c0 1.1.9 2 2 2h55.72a2 2 0 0 0 2-2V59.72" stroke="#768692" stroke-width="2" stroke-linecap="round" stroke-linejoin="round"></path>
		<path d="M11.879 82.04v7.38c0 3.08 2.5 5.58 5.58 5.58h48.56c3.08 0 5.58-2.5 5.58-5.58v-7.38M63.998 1.48v7.18M55.19 1.48v7.18M46.389 1.48v7.18M37.578 1.48v7.18M28.77 1.48v7.18M19.969 1.48v7.18" stroke="#768692" stroke-width="2" stroke-linecap="round" stroke-linejoin="round"></path>
		<path d="m87.258 44.05-2.96 2.96-4.15-4.15 2.96-2.96a2.927 2.927 0 0 1 4.15 0 2.946 2.946 0 0 1 0 4.16v-.01Z" fill="url(#c)"></path><path d="m56.95 74.36-4.15-4.15-2.19 6.11.23.23 6.11-2.19Z" fill="url(#d)"></path>
		<path d="m85.7 45.61-1.4 1.4-21.87 21.87-1.33 1.33-4.15 4.15M52.799 70.21l4.15-4.15 1.33-1.33 21.87-21.87 1.4-1.4" stroke="#768692" stroke-width="2" stroke-linecap="round" stroke-linejoin="round"></path>
		<path d="m81.549 41.46 1.56-1.56a2.927 2.927 0 0 1 4.15 0 2.946 2.946 0 0 1 0 4.16l-1.56 1.56M52.798 70.21l-2.19 6.11-.13.36.36-.13 6.11-2.19M19.648 27.019h24.694M19.648 35.298h37.3M19.648 51.51h18.49M19.648 60.08h34.31M19.648 68.65h18.49" stroke="#768692" stroke-width="2" stroke-linecap="round" stroke-linejoin="round"></path>
		<path d="m27.408 99.38-2.72-1.88a.768.768 0 0 0-.87 0l-2.72 1.88a.757.757 0 0 1-1.19-.63V89.8h8.69v8.95c0 .61-.69.98-1.19.63Z" fill="url(#e)"></path>
	</g>
	<defs>
		<linearGradient id="b" x1="41.739" y1="6.349" x2="41.739" y2="27.849" gradientUnits="userSpaceOnUse">
			<stop stop-color="#4AC7F1"></stop><stop offset="1" stop-color="#3C79EF"></stop>
		</linearGradient>
		<linearGradient id="c" x1="86.86" y1="40.286" x2="80.355" y2="46.791" gradientUnits="userSpaceOnUse">
			<stop stop-color="#4AC7F1"></stop><stop offset="1" stop-color="#3C79EF"></stop>
		</linearGradient>
		<linearGradient id="d" x1="54.398" y1="72.749" x2="48.833" y2="78.314" gradientUnits="userSpaceOnUse">
			<stop stop-color="#4AC7F1"></stop>
			<stop offset="1" stop-color="#3C79EF"></stop></linearGradient><linearGradient id="e" x1="24.258" y1="90.669" x2="24.258" y2="105.089" gradientUnits="userSpaceOnUse">
			<stop stop-color="#4AC7F1"></stop>
			<stop offset="1" stop-color="#3C79EF"></stop>
		</linearGradient>
		<clipPath id="a">
			<path fill="#fff" transform="translate(10.879 .48)" d="M0 0h78.24v99.04H0z"></path>
		</clipPath>
	</defs>
</svg>