<svg width="24" height="24" viewBox="0 0 24 24" fill="none" xmlns="http://www.w3.org/2000/svg">
	<path d="M20.7907 10.3636H12.2093V13.8409H17.1488C16.6884 16.05 14.7628 17.3182 12.2093 17.3182C9.19535 17.3182 6.76744 14.9455 6.76744 12C6.76744 9.05455 9.19535 6.68182 12.2093 6.68182C13.507 6.68182 14.6791 7.13182 15.6 7.86818L18.2791 5.25C16.6465 3.85909 14.5535 3 12.2093 3C7.10233 3 3 7.00909 3 12C3 16.9909 7.10233 21 12.2093 21C16.814 21 21 17.7273 21 12C21 11.4682 20.9163 10.8955 20.7907 10.3636Z" fill="white"></path>
	<mask id="mask0_2210_33593" maskUnits="userSpaceOnUse" x="3" y="3" width="18" height="18" style="mask-type: alpha;">
		<path d="M20.7907 10.3636H12.2093V13.8409H17.1488C16.6884 16.05 14.7628 17.3182 12.2093 17.3182C9.19535 17.3182 6.76744 14.9455 6.76744 12C6.76744 9.05455 9.19535 6.68182 12.2093 6.68182C13.507 6.68182 14.6791 7.13182 15.6 7.86818L18.2791 5.25C16.6465 3.85909 14.5535 3 12.2093 3C7.10233 3 3 7.00909 3 12C3 16.9909 7.10233 21 12.2093 21C16.814 21 21 17.7273 21 12C21 11.4682 20.9163 10.8955 20.7907 10.3636Z" fill="black"></path>
	</mask>
	<g mask="url(#mask0_2210_33593)">
		<path d="M20.75 3.875L15.25 9.25L8.375 10.625L3.125 4.875L10.25 -0.625L20.75 3.875Z" fill="white"></path>
		<path d="M19.375 19.25L14.75 15.75L10.25 13.75V9.125H23.625L19.375 19.25Z" fill="white"></path>
		<path d="M2.25 17.875L7.75 13.125L13.875 14.875L20.25 19.25L10.125 24L2.25 17.875Z" fill="white"></path>
		<path d="M8.75 10L3.875 5.875L1.125 10L2 18.375L7.875 13.75L8.75 10Z" fill="white"></path>
	</g>
</svg>